<svg xmlns="http://www.w3.org/2000/svg" width="23.034" height="16.254" viewBox="0 0 23.034 16.254">
  <g id="Raggruppa_3355" data-name="Raggruppa 3355" transform="translate(-978.923 -346.479)">
    <path id="Tracciato_260" data-name="Tracciato 260" d="M3978.208,1214.793h14.945a.338.338,0,0,1,.193.614l-7.226,5.055a.768.768,0,0,1-.881,0l-7.226-5.055a.338.338,0,0,1,.193-.614" transform="translate(-2995.239 -868.314)" fill="#ae0d21"/>
    <path id="Tracciato_261" data-name="Tracciato 261" d="M3983.265,1227.511v11.079a2.1,2.1,0,0,1-2.1,2.1h-18.833a2.1,2.1,0,0,1-2.1-2.1v-11.079a.506.506,0,0,1,.8-.413l8.609,6.076a3.668,3.668,0,0,0,4.22,0l8.609-6.074a.506.506,0,0,1,.8.413" transform="translate(-2981.308 -877.958)" fill="#ae0d21"/>
  </g>
</svg>
