<svg xmlns="http://www.w3.org/2000/svg" width="19.872" height="25" viewBox="0 0 19.872 25">
  <path id="Tracciato_2798" data-name="Tracciato 2798" d="M75.917,55.573a1.178,1.178,0,0,0-1.128-1.124c-.005-.006-3.756-.006-7.61,0a1.729,1.729,0,0,1,.357,1.094V65.6l-3.344-2.947L60.85,65.6V55.539a1.7,1.7,0,0,0-.379-1.091H58.907a1.381,1.381,0,0,1-1.412-1.321,1.356,1.356,0,0,1,1.464-1.265h15.9a.659.659,0,1,0,0-1.312H59.011c-1.719,0-2.963.99-2.963,2.578V73.072a2.486,2.486,0,0,0,2.478,2.479h14.84A2.536,2.536,0,0,0,75.9,73.072S75.929,55.587,75.917,55.573Z" transform="translate(-56.048 -50.551)" fill="#fff"/>
</svg>
