<svg xmlns="http://www.w3.org/2000/svg" width="19.154" height="22.868" viewBox="0 0 19.154 22.868">
  <path id="Tracciato_227" data-name="Tracciato 227" d="M522.176,822.381a9.577,9.577,0,0,0-9.578,9.577c0,5.251,3.184,8.076,5.814,10.514,1.087,1.009,2.058,1.84,2.742,2.407a1.6,1.6,0,0,0,2.044,0c.683-.567,1.653-1.4,2.74-2.406,2.63-2.439,5.814-5.263,5.814-10.514a9.576,9.576,0,0,0-9.576-9.577m-.19,14.475a4.639,4.639,0,1,1,4.828-4.634,4.657,4.657,0,0,1-4.828,4.634" transform="translate(-512.598 -822.381)" fill="#ae0d21"/>
</svg>
