<svg xmlns="http://www.w3.org/2000/svg" width="29.941" height="27" viewBox="0 0 29.941 27">
  <g id="Raggruppa_3382" data-name="Raggruppa 3382" transform="translate(-516 -744)">
    <g id="Raggruppa_3373" data-name="Raggruppa 3373" transform="translate(210.5 436.437)">
      <g id="Raggruppa_3372" data-name="Raggruppa 3372" transform="translate(305.5 307.563)">
        <g id="Raggruppa_3371" data-name="Raggruppa 3371">
          <path id="Tracciato_2802" data-name="Tracciato 2802" d="M334.015,308.938H331.2v2.852h1.39v12.832H308.352V311.789h1.39v-2.852h-2.816a1.425,1.425,0,0,0-1.426,1.426v17.822a1.426,1.426,0,0,0,1.426,1.426H317.56l-.535,3.208h-2.614a1.069,1.069,0,1,0,0,2.139H326.53a1.069,1.069,0,0,0,0-2.139h-2.614l-.535-3.208h10.634a1.426,1.426,0,0,0,1.426-1.426V310.364A1.425,1.425,0,0,0,334.015,308.938Zm-13.545,19.6a1.069,1.069,0,1,1,1.069-1.069A1.07,1.07,0,0,1,320.47,328.542Z" transform="translate(-305.5 -307.958)" fill="#fff"/>
          <path id="Tracciato_2803" data-name="Tracciato 2803" d="M320.273,307.563H313.95v13.188h6.323a3.5,3.5,0,0,1,1.732.458V309.3h0A1.734,1.734,0,0,0,320.273,307.563Zm5.247,0a1.734,1.734,0,0,0-1.732,1.732h0v11.912a3.5,3.5,0,0,1,1.732-.458h6.323V307.563Z" transform="translate(-307.926 -307.563)" fill="#fff"/>
        </g>
      </g>
    </g>
  </g>
</svg>
