<svg id="Raggruppa_3363" data-name="Raggruppa 3363" xmlns="http://www.w3.org/2000/svg" xmlns:xlink="http://www.w3.org/1999/xlink" width="80" height="47.278" viewBox="0 0 80 47.278">
  <defs>
    <clipPath id="clip-path">
      <rect id="Rettangolo_1" data-name="Rettangolo 1" width="80" height="47.278" fill="none"/>
    </clipPath>
  </defs>
  <g id="Raggruppa_1" data-name="Raggruppa 1" clip-path="url(#clip-path)">
    <path id="Tracciato_1" data-name="Tracciato 1" d="M98.693,66.2c0-4.329-2.233-8.752-6.883-8.752s-6.472,4.376-6.381,8.615c-.091,3.646,1.823,8.8,6.426,8.8,4.832,0,6.837-4.786,6.837-8.66" transform="translate(-61.96 -41.669)" fill="#fff"/>
    <path id="Tracciato_2" data-name="Tracciato 2" d="M124.379,119.5h-.091a8.469,8.469,0,0,1-3.7,2.985h7.521Z" transform="translate(-87.464 -86.677)" fill="#fff"/>
    <path id="Tracciato_3" data-name="Tracciato 3" d="M86.585,12.318c4.056,0,6.381,1.6,7.7,3.737h.091V4.2L98.663.1v35.71h3.843V12.865h4.011v3.6h.091a7.072,7.072,0,0,1,6.062-4.148,11.549,11.549,0,0,1,2.621.278V0H79.479V15.333a9.151,9.151,0,0,1,7.106-3.015" transform="translate(-57.646)" fill="#fff"/>
    <path id="Tracciato_4" data-name="Tracciato 4" d="M185.237,58.446c-3.829,0-6.335,3.647-6.335,9.481V78.2h8.5V58.789a6.561,6.561,0,0,0-2.166-.343" transform="translate(-129.758 -42.391)" fill="#fff"/>
    <path id="Tracciato_5" data-name="Tracciato 5" d="M79.479,121.882v2.332h3a8.614,8.614,0,0,1-3-2.332" transform="translate(-57.646 -88.401)" fill="#fff"/>
    <path id="Tracciato_6" data-name="Tracciato 6" d="M225.367,59.816a15.941,15.941,0,0,1-.466,4.37,5.33,5.33,0,0,1-4.718,3.612,3.686,3.686,0,0,1-3.844-4.02c0-3.728,2.97-5.71,9.029-5.883Zm0-2.8c-4.078.116-5.942.408-7.982,1.165-3.5,1.281-5.476,3.67-5.476,6.584,0,3.262,2.389,5.36,6.117,5.36,3.321,0,5.536-1.457,7.34-4.719.467,3.378,1.69,4.719,4.371,4.719,1.4,0,2.038-.233,3.961-1.631l-.524-.7a2.49,2.49,0,0,1-1.748.874c-1.164,0-1.572-.641-1.572-2.446V53.115c0-2.447-.524-3.845-1.807-4.894a9.946,9.946,0,0,0-5.883-1.805c-4.779,0-8.739,2.563-8.739,5.593,0,1.514.874,2.563,2.1,2.563a2.169,2.169,0,0,0,2.1-2.388,2.757,2.757,0,0,0-.757-1.807,1.867,1.867,0,0,1-.407-.757c0-.99,2.621-2.214,4.777-2.214,2.854,0,4.135,1.166,4.135,3.788Z" transform="translate(-153.698 -33.666)" fill="#fff"/>
    <path id="Tracciato_7" data-name="Tracciato 7" d="M15.5,55.213H5.3V53.232c0-3.846,1.689-5.652,5.3-5.652,3.437,0,4.894,1.515,4.894,5.128ZM5.3,56.262H20.8c-.291-5.767-4.428-9.846-10.137-9.846C5.01,46.416,0,52.009,0,58.358S5.243,70.128,11.361,70.128c4.777,0,8.332-3.147,9.205-8.156H19.4c-.816,4.311-3.962,6.991-8.1,6.991-4.312,0-6-2.331-6-8.273Z" transform="translate(0 -33.666)" fill="#fff"/>
    <path id="Tracciato_8" data-name="Tracciato 8" d="M38.536,148.285h3.1c1.217,0,2.673.249,2.673,1.763,0,1.341-1.4,1.734-2.5,1.734H40.711v2.664h1.016v.24H38.536v-.24h.949v-5.921h-.949Zm3.3,3.258c.929,0,1.121-.719,1.121-1.5,0-.689-.048-1.514-1.121-1.514H40.711v3.018Z" transform="translate(-27.95 -107.552)" fill="#fff"/>
    <path id="Tracciato_9" data-name="Tracciato 9" d="M67.494,148.285v.24h-.958v4.024a2.133,2.133,0,0,1-.575,1.782,2.7,2.7,0,0,1-1.859.5,2.921,2.921,0,0,1-1.7-.508c-.412-.307-.594-.93-.594-2v-3.794h-.949v-.24h3.124v.24h-.949v3.507c0,1.332-.144,2.491,1.59,2.491,1.121,0,1.6-.709,1.6-1.763v-4.235H65.3v-.24Z" transform="translate(-44.144 -107.552)" fill="#fff"/>
    <path id="Tracciato_10" data-name="Tracciato 10" d="M86.084,154.685v-.24h.949v-5.922h-.949v-.24h2.942c1.054,0,2.568.163,2.568,1.543,0,.977-1.006,1.4-1.83,1.523v.019c.939.067,2.05.556,2.05,1.648a1.581,1.581,0,0,1-1.255,1.514,7.561,7.561,0,0,1-2.261.154Zm2.175-3.43h.853c.728,0,1.179-.335,1.179-1.428,0-1.543-.843-1.275-2.031-1.3Zm0,3.191h1.207c.834,0,.977-.8.977-1.476,0-.9-.3-1.466-1.274-1.475h-.91Z" transform="translate(-62.437 -107.551)" fill="#fff"/>
    <path id="Tracciato_11" data-name="Tracciato 11" d="M109.6,154.686v-.24h.949v-5.922H109.6v-.24h3.172v.24h-1v5.922h1.255c1.217,0,1.648-.814,1.686-1.917h.3l-.1,2.156Z" transform="translate(-79.491 -107.552)" fill="#fff"/>
    <path id="Tracciato_12" data-name="Tracciato 12" d="M133.366,154.446h.949v.24h-3.124v-.24h.949v-5.922h-.949v-.24h3.124v.24h-.949Z" transform="translate(-95.153 -107.551)" fill="#fff"/>
    <path id="Tracciato_13" data-name="Tracciato 13" d="M146.249,154.363h-.163v-1.907h.278c.2.91.747,1.753,1.763,1.753a1.377,1.377,0,0,0,1.428-1.341c0-.891-.8-1.064-1.514-1.313-.192-.067-.383-.134-.575-.192a1.782,1.782,0,0,1-1.332-1.849,1.705,1.705,0,0,1,1.744-1.754,2.072,2.072,0,0,1,1.4.479l.364-.383h.173v1.811h-.307A1.712,1.712,0,0,0,147.849,148a1.145,1.145,0,0,0-1.188,1.092c0,.738.508.814,1.1.977.24.067.431.134.594.182a4.491,4.491,0,0,1,.633.22,1.856,1.856,0,0,1,1.092,1.878,1.962,1.962,0,0,1-2.022,2.1,2.19,2.19,0,0,1-1.361-.489Z" transform="translate(-105.957 -107.172)" fill="#fff"/>
    <path id="Tracciato_14" data-name="Tracciato 14" d="M166.262,151.514v2.932h.949v.24h-3.124v-.24h.949v-5.922h-.949v-.24h3.124v.24h-.949v2.75h2.549v-2.75h-.949v-.24h3.124v.24h-.949v5.922h.949v.24h-3.124v-.24h.949v-2.932Z" transform="translate(-119.013 -107.552)" fill="#fff"/>
    <path id="Tracciato_15" data-name="Tracciato 15" d="M193.472,154.446h.949v.24H191.3v-.24h.949v-5.922H191.3v-.24h3.124v.24h-.949Z" transform="translate(-138.748 -107.551)" fill="#fff"/>
    <path id="Tracciato_16" data-name="Tracciato 16" d="M210.045,154.81h-.287l-4.063-6.094v5.73h.939v.24h-2.185v-.24h.939v-5.922h-.939v-.24H206.9l2.836,4.187v-3.948h-.92v-.24H211v.24h-.958Z" transform="translate(-148.288 -107.552)" fill="#fff"/>
    <path id="Tracciato_17" data-name="Tracciato 17" d="M235.7,149.706A1.954,1.954,0,0,0,233.89,148c-1.782,0-1.7,1.639-1.7,3.047,0,1.264-.182,3.162,1.572,3.162,1.332,0,1.178-1.006,1.178-1.993h-.967v-.24h3v.24H236.3a2.234,2.234,0,0,1-2.434,2.233,2.8,2.8,0,0,1-2.405-1.188,3.324,3.324,0,0,1-.68-2.146,3.592,3.592,0,0,1,.891-2.338,2.744,2.744,0,0,1,3.708-.518l.383-.4h.211v1.849Z" transform="translate(-167.389 -107.172)" fill="#fff"/>
  </g>
</svg>
