<svg xmlns="http://www.w3.org/2000/svg" width="35" height="24.924" viewBox="0 0 35 24.924">
  <g id="Raggruppa_3386" data-name="Raggruppa 3386" transform="translate(-513 -1080)">
    <g id="Raggruppa_3378" data-name="Raggruppa 3378" transform="translate(-17.315 878.174)">
      <g id="Raggruppa_3377" data-name="Raggruppa 3377" transform="translate(530.315 201.826)">
        <g id="Raggruppa_3376" data-name="Raggruppa 3376">
          <path id="Tracciato_2806" data-name="Tracciato 2806" d="M554.488,216.072a4.839,4.839,0,0,1,.122-2.665,5,5,0,0,1,2.591-2.893,4.74,4.74,0,0,1,2.945-.425.4.4,0,0,0,.463-.405v-6.221a1.639,1.639,0,0,0-1.643-1.637H536.792a1.639,1.639,0,0,0-1.643,1.637v6.2a.4.4,0,0,0,.461.4,4.776,4.776,0,0,1,3.472.843,4.817,4.817,0,0,1,2.058,5.159.4.4,0,0,0,.4.49h1.068a.409.409,0,0,0,.4-.321,4.955,4.955,0,0,1,9.621,0,.409.409,0,0,0,.395.321h1.067A.4.4,0,0,0,554.488,216.072Zm-18.171,2.186a3.3,3.3,0,1,0-3.314-3.3A3.308,3.308,0,0,0,536.317,218.259Zm19.682-3.3a3.314,3.314,0,1,0,3.314-3.3A3.309,3.309,0,0,0,556,214.956Zm6.615,4.969h-6.6a2.693,2.693,0,0,0-2.263,1.232.42.42,0,0,0,.092.562A4.324,4.324,0,0,1,555.3,223.9a.412.412,0,0,0,.393.309h8.8a.819.819,0,0,0,.821-.819v-.777A2.7,2.7,0,0,0,562.613,219.924Zm-23,0h-6.6a2.7,2.7,0,0,0-2.7,2.693v.777a.819.819,0,0,0,.821.819h8.8a.412.412,0,0,0,.393-.309,4.323,4.323,0,0,1,1.455-2.185.42.42,0,0,0,.092-.562A2.694,2.694,0,0,0,539.617,219.924Z" transform="translate(-530.315 -201.826)" fill="#fff"/>
          <path id="Tracciato_2807" data-name="Tracciato 2807" d="M550.495,223.654a3.412,3.412,0,1,0-3.412-3.412A3.412,3.412,0,0,0,550.495,223.654Zm3.4,1.721h-6.8a2.782,2.782,0,0,0-2.782,2.782v.8a.845.845,0,0,0,.846.846h10.669a.845.845,0,0,0,.846-.846v-.8A2.782,2.782,0,0,0,553.893,225.375Z" transform="translate(-532.995 -204.881)" fill="#fff"/>
        </g>
      </g>
    </g>
  </g>
</svg>
