<svg xmlns="http://www.w3.org/2000/svg" width="27.021" height="27.733" viewBox="0 0 27.021 27.733">
  <g id="Raggruppa_3384" data-name="Raggruppa 3384" transform="translate(-956 -743)">
    <g id="Raggruppa_3381" data-name="Raggruppa 3381" transform="translate(453.452 367.114)">
      <path id="Tracciato_2813" data-name="Tracciato 2813" d="M539.092,390.282a2.19,2.19,0,0,1-.784,1.511,2.227,2.227,0,0,1-1.424.522,2.281,2.281,0,0,1-1.706-.8l-2.528-2.883a6.413,6.413,0,0,1-2.744.355,6.564,6.564,0,0,1,.567-13.1,6.726,6.726,0,0,1,5.024,2.345,6.545,6.545,0,0,1,.6,7.585l2.476,2.835A2.2,2.2,0,0,1,539.092,390.282ZM530.5,378.249a4.245,4.245,0,0,0-.36,8.473c.122.011.244.015.371.016a4.245,4.245,0,0,0-.011-8.489Z" transform="translate(-9.533)" fill="#fff"/>
      <path id="Tracciato_2814" data-name="Tracciato 2814" d="M511.567,383.262a9.42,9.42,0,0,1,.985-4.187c-.252-.111-1-.563-1.146-.628a9.5,9.5,0,0,0-4.228-.8,4.933,4.933,0,0,0-3.8,1.712,3.577,3.577,0,0,0-.407.686,6.21,6.21,0,0,0-.277,3.606,14.95,14.95,0,0,0,1.589,4.376c.7,1.28.762,3.226.826,5.3a21.02,21.02,0,0,0,.843,6.331,12.445,12.445,0,0,0,1.7,3.341,3.005,3.005,0,0,0,2.271,1.39c1.428,0,1.426-.641,1.424-1.781v-.089h0a10.782,10.782,0,0,0-.163-1.347,13.8,13.8,0,0,1-.166-4.682,3.014,3.014,0,0,1,1.246-1.956,2.468,2.468,0,0,1,1.274-.406,2.424,2.424,0,0,1,1.282.321,2.882,2.882,0,0,1,1.3,1.8,12.029,12.029,0,0,1-.173,4.865,9.465,9.465,0,0,0-.191,1.405h0v.092c0,1.139,0,1.781,1.424,1.781a2.979,2.979,0,0,0,2.246-1.358,12.2,12.2,0,0,0,1.683-3.264,19.812,19.812,0,0,0,.977-6.37c.009-.253.019-.5.03-.741a9.438,9.438,0,0,1-10.561-9.406Z" transform="translate(0 -0.783)" fill="#fff"/>
    </g>
  </g>
</svg>
