<svg xmlns="http://www.w3.org/2000/svg" width="19.948" height="30.314" viewBox="0 0 19.948 30.314">
  <g id="Raggruppa_3385" data-name="Raggruppa 3385" transform="translate(-303 -1077)">
    <g id="Raggruppa_3375" data-name="Raggruppa 3375" transform="translate(-78.668 838)">
      <g id="Raggruppa_3374" data-name="Raggruppa 3374" transform="translate(381.668 239)">
        <path id="Tracciato_2804" data-name="Tracciato 2804" d="M396.8,271.122h-7.471a1.263,1.263,0,0,0-1.263,1.263v.182a1.263,1.263,0,0,0,1.263,1.263h1.239v.306a2.332,2.332,0,0,0,2.332,2.332h.335a2.332,2.332,0,0,0,2.332-2.332v-.306H396.8a1.263,1.263,0,0,0,1.263-1.263v-.182A1.263,1.263,0,0,0,396.8,271.122Z" transform="translate(-383.094 -246.154)" fill="#fff"/>
        <path id="Tracciato_2805" data-name="Tracciato 2805" d="M390.481,239.066a10.628,10.628,0,0,0-8.741,8.7,9.938,9.938,0,0,0,2.74,8.141,6.381,6.381,0,0,1,1.792,4.445h0a1.535,1.535,0,0,0,1.535,1.535h7.672a1.534,1.534,0,0,0,1.534-1.535,6.291,6.291,0,0,1,1.758-4.41,9.968,9.968,0,0,0-8.289-16.874Zm.19,18.977a.972.972,0,1,1-1.943,0v-4.2a2.4,2.4,0,0,0-2.4-2.4.972.972,0,1,1,0-1.943,4.345,4.345,0,0,1,4.34,4.34Zm6.283-6.6a2.4,2.4,0,0,0-2.4,2.4v4.2a.972.972,0,1,1-1.943,0v-4.2a4.345,4.345,0,0,1,4.34-4.34.972.972,0,1,1,0,1.943Z" transform="translate(-381.668 -239)" fill="#fff"/>
      </g>
    </g>
  </g>
</svg>
