<svg xmlns="http://www.w3.org/2000/svg" width="31.465" height="25" viewBox="0 0 31.465 25">
  <g id="Raggruppa_3383" data-name="Raggruppa 3383" transform="translate(-733 -745)">
    <g id="Raggruppa_3370" data-name="Raggruppa 3370" transform="translate(630.806 366.634)">
      <g id="Raggruppa_3369" data-name="Raggruppa 3369" transform="translate(102.193 378.366)">
        <path id="Tracciato_2800" data-name="Tracciato 2800" d="M106.753,403.745V397.2l-2-1.149v7.636a2.505,2.505,0,1,0,2,.056Z" transform="translate(-102.193 -385.634)" fill="#fff"/>
        <path id="Tracciato_2801" data-name="Tracciato 2801" d="M117.926,399.438a3.468,3.468,0,0,1-1.725-.46l-8.558-4.917v3.861c.04.025.076.054.117.077l8.622,4.955a3.1,3.1,0,0,0,3.088,0L128.093,398a3.1,3.1,0,0,0,1.556-2.687v-2.079l-10,5.743A3.468,3.468,0,0,1,117.926,399.438Zm14.967-12.949-13.423-7.712a3.1,3.1,0,0,0-3.088,0l-13.423,7.712a1.527,1.527,0,0,0,0,2.647l14.206,8.161a1.526,1.526,0,0,0,1.521,0l14.207-8.161A1.527,1.527,0,0,0,132.893,386.489Z" transform="translate(-102.193 -378.366)" fill="#fff"/>
      </g>
    </g>
  </g>
</svg>
